# xmcd
#
# Track frame offsets:
#	150
#	15172
#	28198
#	41985
#	55548
#	67023
#	83711
#	100123
#	113514
#	123394
#	139182
#	151782
#	166167
#	176707
#	193081
#	203802
#	214313
#	227390
#	241715
#	253496
#	265902
#	276368
#	289395
#	302947
#	313447
#
# Disc length: 4325 seconds
#
# Revision: 1
# Processed by: cddbd v1.5.2PL0 Copyright (c) Steve Scherf et al.
# Submitted via: audiograbber 1.83.01
#
DISCID=6c10e319
DTITLE=Various Artist - 25 Greatest Country Heartbreakers
DYEAR=2011
DGENRE=Country
TTITLE0=Don Gibson - I Can't Stop Loving You
TTITLE1=Lynn Anderson - Rose Garden
TTITLE2=Charlie Rich - The Most Beautiful Girl In The World
TTITLE3=Faron Young - Four In The Morning
TTITLE4=Conway Twitty - As Soon As I Hang Up The Phone
TTITLE5=Billie Jo Spears - Blanket On The Ground
TTITLE6=Merle Haggard - Today, I Started Loving You Again
TTITLE7=Bobby Bare - Detroit City
TTITLE8=Leroy Van Dyke - Walk On By
TTITLE9=Anne Murray - There Goes My Everything
TTITLE10=George Jones - She Thinks I Still Care
TTITLE11=Sandy Posey - She's Got You
TTITLE12=Don Gibson - Sea Of Heartbreak
TTITLE13=Willie Nelson - Always On My Mind
TTITLE14=Sammi Smith - Help Me Make It Through The Night
TTITLE15=Faron Young - Hello Walls
TTITLE16=Jeanette Pruett - Satin Sheets
TTITLE17=Roger Miller - My Elusive Dreams
TTITLE18=Patsy Cline - Walking After Midnight
TTITLE19=Bobby Bare - Streets Of Baltimore
TTITLE20=Skeeter Davis - My Last Date (With You)
TTITLE21=Bill Anderson - Still
TTITLE22=George Jones - Almost Persuaded
TTITLE23=Jim Reeves - He'll Have To Go
TTITLE24=Hank Williams - I Can't Help It (If I'm Still In Love With You)
EXTD=
EXTT0=
EXTT1=
EXTT2=
EXTT3=
EXTT4=
EXTT5=
EXTT6=
EXTT7=
EXTT8=
EXTT9=
EXTT10=
EXTT11=
EXTT12=
EXTT13=
EXTT14=
EXTT15=
EXTT16=
EXTT17=
EXTT18=
EXTT19=
EXTT20=
EXTT21=
EXTT22=
EXTT23=
EXTT24=
PLAYORDER=
